<svg width="63" height="63" viewBox="0 0 63 63" fill="none" xmlns="http://www.w3.org/2000/svg">
<path d="M24.3222 2.75133C19.7259 2.75133 15.9997 6.47768 15.9997 11.0742C15.9997 12.4979 16.3575 13.8379 16.9878 15.0095C11.9272 19.6939 7.67486 25.4125 5.01384 31.586C-1.82855 47.4603 4.43958 60.3294 19.0141 60.3294C33.5885 60.3294 50.9503 47.4604 57.7928 31.5859C64.6353 15.7114 58.3676 2.84238 43.7929 2.84238C39.582 2.84238 35.1385 3.91843 30.7832 5.8291C29.2572 3.9514 26.9302 2.75121 24.3222 2.75121V2.75133ZM23.4978 4.4842L25.1329 7.88841L28.8853 7.01909L26.9541 9.98082C26.4161 9.48568 25.6676 9.21621 24.881 9.27773C23.3803 9.39512 22.2539 10.712 22.3711 12.2126C22.3916 12.4624 22.489 12.6931 22.5702 12.918L19.0326 13.7709L21.2388 10.6433L18.5684 7.82455L22.4103 8.10141L23.4975 4.4842H23.4978ZM39.4312 6.50709C39.7919 6.5061 40.1509 6.51603 40.5082 6.53687C49.6582 7.0704 54.7937 14.6586 53.8871 24.7113C52.2326 35.85 45.3346 45.4914 33.5807 49.2909C35.8474 49.7667 37.9759 49.8216 39.9438 49.512C34.4399 54.0093 28.0599 56.6371 22.19 56.2949C19.1203 56.1159 16.5031 55.142 14.4134 53.5485C16.6863 53.8276 19.4161 53.3822 22.4277 52.0264C15.0192 50.5107 9.8438 45.3114 10.9377 36.589C9.97854 38.0022 9.24395 39.3744 8.71017 40.6874C8.66637 37.4605 9.28578 33.9097 10.6482 30.209C11.4229 28.1049 12.3932 26.0746 13.5211 24.1472C15.2125 21.7552 17.1752 19.6058 19.3492 17.7442C20.7368 18.7809 22.4568 19.3967 24.3222 19.3967C28.9185 19.3967 32.6451 15.6705 32.6451 11.0742C32.6451 10.9775 32.6411 10.8819 32.6377 10.786C36.6011 9.77915 40.781 9.54327 44.9939 10.217C42.9127 8.35254 40.6914 7.15284 38.417 6.53859C38.7561 6.5189 39.0944 6.50783 39.4309 6.50697L39.4312 6.50709Z" fill="#F9F9F9"/>
</svg>
